<svg  xmlns="http://www.w3.org/2000/svg" viewBox="0 0 24 24" width="32" height="32" fill="#fff" style="display: inline-block; vertical-align: middle;"><path fill-rule="evenodd" clip-rule="evenodd" d="M15.59 4.94h.12a2.61 2.61 0 0 1 2.58 2.65v12a2.61 2.61 0 0 1-2.6 2.61H8.27a2.61 2.61 0 0 1-2.6-2.61V7.54a2.61 2.61 0 0 1 2.6-2.6h.36a1.49 1.49 0 0 1 0-.21V3.41a1.62 1.62 0 0 1 1.61-1.61H14a1.62 1.62 0 0 1 1.59 1.61v1.32c.005.07.005.14 0 .21Zm-5.428-1.608a.11.11 0 0 0-.032.078v1.32a.1.1 0 0 0 .11.1H14a.1.1 0 0 0 .11-.1V3.41A.11.11 0 0 0 14 3.3h-3.76a.11.11 0 0 0-.078.032Zm6.326 17.04a1.11 1.11 0 0 0 .322-.782v-12a1.1 1.1 0 0 0-1.1-1.1H8.29a1.1 1.1 0 0 0-1.1 1.1v12a1.11 1.11 0 0 0 1.1 1.11h7.42a1.11 1.11 0 0 0 .778-.329ZM14.91 10.39l-.77 1.19a2 2 0 0 1 .98.57 1.9 1.9 0 0 1 .57 1.41 2 2 0 0 1-.52 1.24l-3.5 3.36a1.54 1.54 0 0 1-2 0 1.32 1.32 0 0 1-.46-.87 1.3 1.3 0 0 1 .25-.93l.58-1a2 2 0 0 1-1.13-.57 2 2 0 0 1-.57-1.41 1.63 1.63 0 0 1 .2-.76 1.69 1.69 0 0 1 .49-.57l3.74-3.44a1.55 1.55 0 0 1 2 0l.14.15c.168.24.258.527.26.82 0 .29-.09.574-.26.81Zm-3.77 6.27 3-2.92h-.04a.61.61 0 0 0 .13-.29.38.38 0 0 0-.13-.26.51.51 0 0 0-.38-.16h-.9a.76.76 0 0 1-.63-.41.75.75 0 0 1 0-.75l.9-1.4-3.06 2.78a.27.27 0 0 1-.08.07l-.07.07a.42.42 0 0 0 .11.4.55.55 0 0 0 .38.16h1a.77.77 0 0 1 .723.765.76.76 0 0 1-.093.365l-.86 1.58Z"></path></svg>